<?xml version="1.0" encoding="UTF-8" standalone="no"?>
<!DOCTYPE svg PUBLIC "-//W3C//DTD SVG 1.1//EN" "http://www.w3.org/Graphics/SVG/1.1/DTD/svg11.dtd">
<svg width="100%" height="100%" viewBox="0 0 1702 536" version="1.1" xmlns="http://www.w3.org/2000/svg" xmlns:xlink="http://www.w3.org/1999/xlink" xml:space="preserve" xmlns:serif="http://www.serif.com/" style="fill-rule:evenodd;clip-rule:evenodd;stroke-linejoin:round;stroke-miterlimit:2;">
    <g transform="matrix(1,0,0,1,-272.198,-281.266)">
        <g transform="matrix(4.16667,0,0,4.16667,0,0)">
            <g transform="matrix(1,0,0,1,151.344,177.368)">
                <path d="M0,11C0.925,11.825 2.45,12.525 4.275,12.525C7.55,12.525 10.625,10.375 10.625,6.7C10.625,0.825 2.35,1.45 2.35,-2.225C2.35,-3.825 3.425,-4.95 5.1,-4.95C6.9,-4.95 8.4,-3.575 9.1,-2.55L9.1,-6.375C8.325,-7.05 6.925,-7.725 5.075,-7.725C2.225,-7.725 -0.675,-5.6 -0.675,-2.1C-0.675,3.9 7.525,3.425 7.525,6.825C7.525,8.625 6.2,9.675 4.375,9.675C2.8,9.675 0.875,8.575 0,7.575L0,11ZM25.5,9.4L18.125,9.4L18.125,-7.475L15.125,-7.475L15.125,12.175L25.5,12.175L25.5,9.4ZM27.7,2.45C27.625,7.125 30.625,12.475 37.6,12.55C43.725,12.45 47.875,7.85 47.775,2.05C47.65,-3.875 43.525,-7.55 37.75,-7.6C30.7,-7.575 27.675,-1.6 27.7,2.45M30.825,2.45C30.8,-0.45 32.675,-4.8 37.75,-4.825C41.9,-4.8 44.575,-2.1 44.675,2.175C44.75,6.35 42.05,9.7 37.65,9.775C32.625,9.725 30.75,5.825 30.825,2.45M53.025,-7.475L49.8,-7.475L56.9,12.175L60.05,12.175L67.675,-7.475L64.45,-7.475L58.575,8.725L53.025,-7.475ZM80.474,9.4L74.299,9.4L74.299,3.725L78.674,3.725L78.674,0.95L74.299,0.95L74.299,-4.675L80.474,-4.675L80.474,-7.475L71.299,-7.475L71.299,12.175L80.474,12.175L80.474,9.4ZM101.524,-7.475L101.524,7.175L87.499,-7.475L85.049,-7.475L85.049,12.175L88.049,12.175L88.049,-2.45L102.099,12.175L104.524,12.175L104.524,-7.475L101.524,-7.475ZM109.699,11C110.624,11.825 112.149,12.525 113.974,12.525C117.249,12.525 120.324,10.375 120.324,6.7C120.324,0.825 112.049,1.45 112.049,-2.225C112.049,-3.825 113.124,-4.95 114.799,-4.95C116.599,-4.95 118.099,-3.575 118.799,-2.55L118.799,-6.375C118.024,-7.05 116.624,-7.725 114.774,-7.725C111.924,-7.725 109.024,-5.6 109.024,-2.1C109.024,3.9 117.224,3.425 117.224,6.825C117.224,8.625 115.899,9.675 114.074,9.675C112.499,9.675 110.574,8.575 109.699,7.575L109.699,11ZM124.824,-7.475L124.824,12.175L127.824,12.175L127.824,2.8L136.274,12.175L140.324,12.175L131.299,2.4L140.399,-7.475L136.399,-7.475L127.824,2.2L127.824,-7.475L124.824,-7.475ZM152.949,9.4L146.773,9.4L146.773,3.725L151.148,3.725L151.148,0.95L146.773,0.95L146.773,-4.675L152.949,-4.675L152.949,-7.475L143.773,-7.475L143.773,12.175L152.949,12.175L152.949,9.4ZM157.248,18.725C159.648,16.75 160.973,13.9 160.973,10.375L160.973,-7.475L157.948,-7.475L157.948,10.4C157.923,12.875 157.073,14.975 155.323,16.475L157.248,18.725ZM190.073,12.175L194.298,12.175L186.523,3.625C188.248,2.6 189.323,0.925 189.323,-1.35C189.323,-5.625 186.373,-7.475 181.848,-7.475L177.723,-7.475L177.723,12.175L180.723,12.175L180.723,4.8L181.748,4.8C182.348,4.8 182.923,4.75 183.473,4.675L190.073,12.175ZM180.723,-4.675L181.948,-4.675C184.523,-4.675 186.098,-3.675 186.098,-1.4C186.098,0.975 184.473,2.05 181.873,2.05L180.723,2.05L180.723,-4.675ZM205.847,9.4L199.672,9.4L199.672,3.725L204.047,3.725L204.047,0.95L199.672,0.95L199.672,-4.675L205.847,-4.675L205.847,-7.475L196.672,-7.475L196.672,12.175L205.847,12.175L205.847,9.4ZM214.447,4.8C218.672,4.8 222.022,2.625 222.022,-1.35C222.022,-5.625 219.072,-7.475 214.547,-7.475L210.422,-7.475L210.422,12.175L213.422,12.175L213.422,4.8L214.447,4.8ZM213.422,-4.675L214.647,-4.675C217.222,-4.675 218.797,-3.675 218.797,-1.4C218.797,0.975 217.172,2.05 214.572,2.05L213.422,2.05L213.422,-4.675ZM225.772,-7.475L225.772,1.95C225.772,8.125 228.622,12.55 235.122,12.55C240.597,12.55 244.447,8.3 244.447,1.925L244.447,-7.475L241.447,-7.475L241.447,1.95C241.447,6.85 238.872,9.825 235.122,9.825C230.597,9.825 228.772,5.975 228.772,1.925L228.772,-7.475L225.772,-7.475ZM253.171,12.175C257.196,12.175 261.821,11.25 261.821,6.425C261.821,3.55 259.946,2.025 257.121,1.5C258.946,0.95 259.996,-0.175 259.996,-2.125C259.996,-6.1 256.646,-7.475 252.246,-7.475L249.446,-7.475L249.446,12.175L253.171,12.175ZM258.696,6.475C258.696,9 256.671,9.4 253.546,9.4L252.446,9.4L252.446,3.425L253.646,3.425C256.546,3.425 258.696,3.95 258.696,6.475M252.446,0.65L252.446,-4.7L252.871,-4.7C254.746,-4.7 256.946,-4.2 256.946,-1.975C256.946,-0.15 255.596,0.65 253.271,0.65L252.446,0.65ZM276.696,9.4L269.321,9.4L269.321,-7.475L266.321,-7.475L266.321,12.175L276.696,12.175L276.696,9.4ZM280.621,12.175L283.621,12.175L283.621,-7.475L280.621,-7.475L280.621,12.175ZM289.121,-7.475L289.121,12.175L292.121,12.175L292.121,2.8L300.571,12.175L304.621,12.175L295.596,2.4L304.696,-7.475L300.696,-7.475L292.121,2.2L292.121,-7.475L289.121,-7.475ZM315.671,4.425L322.296,-7.475L318.846,-7.475L314.346,1.4L309.646,-7.475L306.196,-7.475L312.671,4.375L312.671,12.175L315.671,12.175L315.671,4.425Z" style="fill:rgb(0,76,152);fill-rule:nonzero;"/>
            </g>
        </g>
        <g transform="matrix(4.16667,0,0,4.16667,0,0)">
            <g transform="matrix(1,0,0,1,172.418,67.8789)">
                <path d="M0,19.525L0,-0.125L-3,-0.125L-11.025,15.6L-18.775,-0.125L-22.025,-0.125L-22.025,19.525L-19.025,19.525L-19.025,6.65L-12.45,19.525L-9.775,19.525L-3,6.425L-3,19.525L0,19.525ZM5.25,19.525L8.25,19.525L8.25,-0.125L5.25,-0.125L5.25,19.525ZM29.975,-0.125L29.975,14.525L15.95,-0.125L13.5,-0.125L13.5,19.525L16.5,19.525L16.5,4.9L30.55,19.525L32.975,19.525L32.975,-0.125L29.975,-0.125ZM38.224,19.525L41.224,19.525L41.224,-0.125L38.224,-0.125L38.224,19.525ZM46.149,18.35C47.074,19.175 48.599,19.875 50.424,19.875C53.699,19.875 56.774,17.725 56.774,14.05C56.774,8.175 48.499,8.8 48.499,5.125C48.499,3.525 49.574,2.4 51.249,2.4C53.049,2.4 54.549,3.775 55.249,4.8L55.249,0.975C54.474,0.3 53.074,-0.375 51.224,-0.375C48.374,-0.375 45.474,1.75 45.474,5.25C45.474,11.25 53.674,10.775 53.674,14.175C53.674,15.975 52.349,17.025 50.524,17.025C48.949,17.025 47.024,15.925 46.149,14.925L46.149,18.35ZM58.525,2.675L64.925,2.675L64.925,19.525L67.925,19.525L67.925,2.675L74.325,2.675L74.325,-0.125L58.525,-0.125L58.525,2.675ZM86.624,16.75L80.449,16.75L80.449,11.075L84.824,11.075L84.824,8.3L80.449,8.3L80.449,2.675L86.624,2.675L86.624,-0.125L77.449,-0.125L77.449,19.525L86.624,19.525L86.624,16.75ZM103.299,19.525L107.524,19.525L99.749,10.975C101.474,9.95 102.549,8.275 102.549,6C102.549,1.725 99.599,-0.125 95.074,-0.125L90.949,-0.125L90.949,19.525L93.949,19.525L93.949,12.15L94.974,12.15C95.574,12.15 96.149,12.1 96.699,12.025L103.299,19.525ZM93.949,2.675L95.174,2.675C97.749,2.675 99.324,3.675 99.324,5.95C99.324,8.325 97.699,9.4 95.099,9.4L93.949,9.4L93.949,2.675ZM109.449,18.35C110.374,19.175 111.899,19.875 113.724,19.875C116.999,19.875 120.074,17.725 120.074,14.05C120.074,8.175 111.799,8.8 111.799,5.125C111.799,3.525 112.874,2.4 114.549,2.4C116.349,2.4 117.849,3.775 118.549,4.8L118.549,0.975C117.774,0.3 116.374,-0.375 114.524,-0.375C111.674,-0.375 108.774,1.75 108.774,5.25C108.774,11.25 116.974,10.775 116.974,14.175C116.974,15.975 115.649,17.025 113.824,17.025C112.249,17.025 110.324,15.925 109.449,14.925L109.449,18.35ZM121.824,2.675L128.224,2.675L128.224,19.525L131.224,19.525L131.224,2.675L137.624,2.675L137.624,-0.125L121.824,-0.125L121.824,2.675ZM142.349,-0.125L139.124,-0.125L146.224,19.525L149.374,19.525L156.999,-0.125L153.774,-0.125L147.899,16.075L142.349,-0.125ZM158.773,9.8C158.698,14.475 161.698,19.825 168.673,19.9C174.798,19.8 178.948,15.2 178.848,9.4C178.723,3.475 174.598,-0.2 168.823,-0.25C161.773,-0.225 158.748,5.75 158.773,9.8M161.898,9.8C161.873,6.9 163.748,2.55 168.823,2.525C172.973,2.55 175.648,5.25 175.748,9.525C175.823,13.7 173.123,17.05 168.723,17.125C163.698,17.075 161.823,13.175 161.898,9.8" style="fill:rgb(0,76,152);fill-rule:nonzero;"/>
            </g>
        </g>
        <g transform="matrix(4.16667,0,0,4.16667,0,0)">
            <g transform="matrix(-1,0,0,1,368.62,-59.759)">
                <rect x="150.52" y="155.936" width="67.58" height="3.005" style="fill:rgb(218,218,218);"/>
            </g>
        </g>
        <g transform="matrix(4.16667,0,0,4.16667,0,0)">
            <g transform="matrix(-1,0,0,1,503.719,-59.759)">
                <rect x="218.07" y="155.936" width="67.579" height="3.005" style="fill:rgb(0,76,152);"/>
            </g>
        </g>
        <g transform="matrix(4.16667,0,0,4.16667,0,0)">
            <g transform="matrix(-1,0,0,1,638.813,-59.759)">
                <rect x="285.616" y="155.936" width="67.581" height="3.005" style="fill:rgb(227,6,19);"/>
            </g>
        </g>
        <g transform="matrix(4.16667,0,0,4.16667,0,0)">
            <g transform="matrix(1,0,0,1,97.9844,67.6566)">
                <path d="M0,81.7C-13.435,75.227 -32.657,62.38 -32.657,36.968C-32.657,11.556 -31.442,0 -31.442,0L31.443,0C31.443,0 32.66,11.556 32.66,36.968C32.66,62.38 13.438,75.227 0,81.7" style="fill:rgb(227,6,19);fill-rule:nonzero;"/>
            </g>
        </g>
        <g transform="matrix(4.16667,0,0,4.16667,0,0)">
            <clipPath id="_clip1">
                <path d="M129.427,67.656L66.542,67.656C66.542,67.656 65.327,79.213 65.327,104.625C65.327,130.037 84.55,142.884 97.985,149.356C111.423,142.884 130.643,130.037 130.643,104.625C130.643,79.213 129.427,67.656 129.427,67.656Z" clip-rule="nonzero"/>
            </clipPath>
            <g clip-path="url(#_clip1)">
                <g transform="matrix(1,0,0,1,100.859,90.6001)">
                    <path d="M0,7.361C3.638,7.421 10.737,7.564 17.056,5.447C17.056,5.447 16.89,7.712 16.89,10.346C16.89,12.98 17.056,15.241 17.056,15.241C11.261,13.303 4.099,13.262 0,13.314L0,27.349L-5.746,27.349L-5.746,13.314C-9.847,13.262 -17.007,13.303 -22.805,15.241C-22.805,15.241 -22.638,12.98 -22.638,10.346C-22.638,7.712 -22.805,5.447 -22.805,5.447C-16.485,7.564 -9.386,7.421 -5.746,7.361L-5.746,-1.453C-9.062,-1.481 -13.841,-1.323 -19.244,0.485C-19.244,0.485 -19.078,-1.778 -19.078,-4.413C-19.078,-7.046 -19.244,-9.308 -19.244,-9.308C-13.851,-7.505 -9.078,-7.343 -5.763,-7.371C-5.934,-12.952 -7.558,-19.988 -7.558,-19.988C-7.558,-19.988 -4.212,-19.728 -2.875,-19.728C-1.535,-19.728 1.81,-19.988 1.81,-19.988C1.81,-19.988 0.185,-12.952 0.015,-7.371C3.331,-7.343 8.103,-7.505 13.497,-9.308C13.497,-9.308 13.331,-7.046 13.331,-4.413C13.331,-1.778 13.497,0.485 13.497,0.485C8.095,-1.323 3.315,-1.481 0,-1.453L0,7.361Z" style="fill:white;fill-rule:nonzero;"/>
                </g>
                <g transform="matrix(1,0,0,1,97.3948,116.431)">
                    <path d="M0,41.263L-27.842,16.443C-27.842,16.443 -24.285,4.933 -17.335,4.933C-11.815,4.933 -9.8,9.384 -9.8,9.384C-9.8,9.384 -6.176,0 0.59,0C7.359,0 10.983,9.384 10.983,9.384C10.983,9.384 12.997,4.933 18.517,4.933C25.466,4.933 29.024,16.443 29.024,16.443L0,41.263Z" style="fill:rgb(0,76,152);fill-rule:nonzero;"/>
                </g>
            </g>
        </g>
        <g transform="matrix(4.16667,0,0,4.16667,0,0)">
            <g transform="matrix(1,0,0,1,150.777,109.674)">
                <path d="M0,20.725C0.925,21.55 2.45,22.25 4.275,22.25C7.55,22.25 10.625,20.1 10.625,16.425C10.625,10.55 2.35,11.175 2.35,7.5C2.35,5.9 3.425,4.775 5.1,4.775C6.9,4.775 8.4,6.15 9.1,7.175L9.1,3.35C8.325,2.675 6.925,2 5.075,2C2.225,2 -0.675,4.125 -0.675,7.625C-0.675,13.625 7.525,13.15 7.525,16.55C7.525,18.35 6.2,19.4 4.375,19.4C2.8,19.4 0.875,18.3 0,17.3L0,20.725ZM6.175,-2.95L4.75,-0.775L3.3,-2.95L0.825,-2.95L3.4,0.875L6.025,0.875L8.7,-2.95L6.175,-2.95ZM14.625,2.25L14.625,21.9L17.625,21.9L17.625,12.525L26.075,21.9L30.125,21.9L21.1,12.125L30.2,2.25L26.2,2.25L17.625,11.925L17.625,2.25L14.625,2.25ZM31.225,12.175C31.15,16.85 34.15,22.2 41.125,22.275C47.25,22.175 51.4,17.575 51.3,11.775C51.175,5.85 47.05,2.175 41.275,2.125C34.225,2.15 31.2,8.125 31.225,12.175M34.35,12.175C34.325,9.275 36.2,4.925 41.275,4.9C45.425,4.925 48.1,7.625 48.2,11.9C48.275,16.075 45.575,19.425 41.175,19.5C36.15,19.45 34.275,15.55 34.35,12.175M65.7,19.125L58.325,19.125L58.325,2.25L55.325,2.25L55.325,21.9L65.7,21.9L65.7,19.125ZM68.799,20.725C69.725,21.55 71.249,22.25 73.074,22.25C76.35,22.25 79.424,20.1 79.424,16.425C79.424,10.55 71.149,11.175 71.149,7.5C71.149,5.9 72.225,4.775 73.899,4.775C75.699,4.775 77.199,6.15 77.899,7.175L77.899,3.35C77.124,2.675 75.725,2 73.874,2C71.024,2 68.124,4.125 68.124,7.625C68.124,13.625 76.324,13.15 76.324,16.55C76.324,18.35 74.999,19.4 73.174,19.4C71.6,19.4 69.674,18.3 68.799,17.3L68.799,20.725ZM80.925,5.05L87.325,5.05L87.325,21.9L90.325,21.9L90.325,5.05L96.725,5.05L96.725,2.25L80.925,2.25L80.925,5.05ZM101.199,2.25L97.974,2.25L105.074,21.9L108.224,21.9L115.849,2.25L112.624,2.25L106.749,18.45L101.199,2.25ZM123.374,2.25L115.849,21.9L119.074,21.9L121.424,15.225L128.024,15.225L130.349,21.9L133.574,21.9L126.299,2.25L123.374,2.25ZM124.749,5.825L127.049,12.45L122.399,12.45L124.749,5.825ZM137.974,18.85C137.974,21.125 137.499,22.9 136.199,24.625L139.199,24.625C140.599,23.375 141.049,21.075 140.974,18.85L137.974,18.85ZM150.849,2.25L147.624,2.25L154.724,21.9L157.874,21.9L165.499,2.25L162.274,2.25L156.399,18.45L150.849,2.25ZM176.223,14.15L182.848,2.25L179.398,2.25L174.898,11.125L170.198,2.25L166.748,2.25L173.223,14.1L173.223,21.9L176.223,21.9L176.223,14.15ZM177.998,-2.15L176.323,-3.9L172.723,-0.175L174.323,1.35L177.998,-2.15ZM185.523,20.725C186.448,21.55 187.973,22.25 189.798,22.25C193.073,22.25 196.148,20.1 196.148,16.425C196.148,10.55 187.873,11.175 187.873,7.5C187.873,5.9 188.948,4.775 190.623,4.775C192.423,4.775 193.923,6.15 194.623,7.175L194.623,3.35C193.848,2.675 192.448,2 190.598,2C187.748,2 184.848,4.125 184.848,7.625C184.848,13.625 193.048,13.15 193.048,16.55C193.048,18.35 191.723,19.4 189.898,19.4C188.323,19.4 186.398,18.3 185.523,17.3L185.523,20.725ZM200.148,2.25L200.148,21.9L203.148,21.9L203.148,12.525L211.598,21.9L215.648,21.9L206.623,12.125L215.723,2.25L211.723,2.25L203.148,11.925L203.148,2.25L200.148,2.25ZM218.223,2.25L218.223,11.675C218.223,17.85 221.073,22.275 227.573,22.275C233.048,22.275 236.898,18.025 236.898,11.65L236.898,2.25L233.898,2.25L233.898,11.675C233.898,16.575 231.323,19.55 227.573,19.55C223.048,19.55 221.223,15.7 221.223,11.65L221.223,2.25L218.223,2.25ZM263.423,21.9L263.423,2.25L260.423,2.25L252.398,17.975L244.648,2.25L241.398,2.25L241.398,21.9L244.398,21.9L244.398,9.025L250.973,21.9L253.648,21.9L260.423,8.8L260.423,21.9L263.423,21.9ZM267.922,2.25L267.922,11.675C267.922,17.85 270.772,22.275 277.272,22.275C282.747,22.275 286.597,18.025 286.597,11.65L286.597,2.25L283.597,2.25L283.597,11.675C283.597,16.575 281.022,19.55 277.272,19.55C272.747,19.55 270.922,15.7 270.922,11.65L270.922,2.25L267.922,2.25ZM290.747,18.85C290.747,21.125 290.272,22.9 288.972,24.625L291.972,24.625C293.372,23.375 293.822,21.075 293.747,18.85L290.747,18.85Z" style="fill:rgb(0,76,152);fill-rule:nonzero;"/>
            </g>
        </g>
        <g transform="matrix(4.16667,0,0,4.16667,0,0)">
            <g transform="matrix(1,0,0,1,153.428,161.001)">
                <path d="M0,-20.05L-3.225,-20.05L3.875,-0.4L7.025,-0.4L14.65,-20.05L11.425,-20.05L5.55,-3.85L0,-20.05ZM25.375,-8.15L32,-20.05L28.55,-20.05L24.05,-11.175L19.35,-20.05L15.9,-20.05L22.375,-8.2L22.375,-0.4L25.375,-0.4L25.375,-8.15ZM27.15,-24.45L25.475,-26.2L21.875,-22.475L23.475,-20.95L27.15,-24.45ZM36.475,-20.05L33.25,-20.05L40.35,-0.4L43.5,-0.4L51.125,-20.05L47.9,-20.05L42.025,-3.85L36.475,-20.05ZM52.649,-10.125C52.574,-5.45 55.574,-0.1 62.549,-0.025C68.674,-0.125 72.824,-4.725 72.724,-10.525C72.599,-16.45 68.474,-20.125 62.699,-20.175C55.649,-20.15 52.624,-14.175 52.649,-10.125M55.774,-10.125C55.749,-13.025 57.624,-17.375 62.699,-17.4C66.849,-17.375 69.524,-14.675 69.624,-10.4C69.699,-6.225 66.999,-2.875 62.599,-2.8C57.574,-2.85 55.699,-6.75 55.774,-10.125M76.474,6.15C78.874,4.175 80.199,1.325 80.199,-2.2L80.199,-20.05L77.174,-20.05L77.174,-2.175C77.149,0.3 76.299,2.4 74.549,3.9L76.474,6.15ZM90.974,-20.05L83.449,-0.4L86.674,-0.4L89.024,-7.075L95.624,-7.075L97.949,-0.4L101.174,-0.4L93.899,-20.05L90.974,-20.05ZM92.349,-16.475L94.649,-9.85L89.999,-9.85L92.349,-16.475ZM117.198,-20.05L109.673,-0.4L112.898,-0.4L115.248,-7.075L121.848,-7.075L124.173,-0.4L127.398,-0.4L120.123,-20.05L117.198,-20.05ZM118.573,-16.475L120.873,-9.85L116.223,-9.85L118.573,-16.475ZM161.173,-0.4L161.173,-20.05L158.173,-20.05L150.148,-4.325L142.398,-20.05L139.148,-20.05L139.148,-0.4L142.148,-0.4L142.148,-13.275L148.723,-0.4L151.398,-0.4L158.173,-13.5L158.173,-0.4L161.173,-0.4ZM176.547,-3.175L169.172,-3.175L169.172,-20.05L166.172,-20.05L166.172,-0.4L176.547,-0.4L176.547,-3.175ZM186.622,-20.05L179.097,-0.4L182.322,-0.4L184.672,-7.075L191.272,-7.075L193.597,-0.4L196.822,-0.4L189.547,-20.05L186.622,-20.05ZM187.997,-16.475L190.297,-9.85L185.647,-9.85L187.997,-16.475ZM191.072,-24.45L189.397,-26.2L185.797,-22.475L187.397,-20.95L191.072,-24.45ZM203.572,-0.4C211.547,-0.4 216.372,-3.35 216.372,-10.15C216.372,-17.325 211.547,-20.05 203.522,-20.05L200.022,-20.05L200.022,-0.4L203.572,-0.4ZM203.022,-17.25L204.147,-17.25C209.797,-17.25 213.222,-15.45 213.222,-10.325C213.222,-5 209.922,-3.175 204.222,-3.175L203.022,-3.175L203.022,-17.25ZM229.171,-3.175L222.996,-3.175L222.996,-8.85L227.371,-8.85L227.371,-11.625L222.996,-11.625L222.996,-17.25L229.171,-17.25L229.171,-20.05L219.996,-20.05L219.996,-0.4L229.171,-0.4L229.171,-3.175ZM232.271,-17.25L241.221,-17.25L232.246,-2.625L232.246,-0.4L244.996,-0.4L244.996,-3.175L235.971,-3.175L245.071,-17.825L245.071,-20.05L232.271,-20.05L232.271,-17.25ZM239.921,-25.25L238.496,-23.075L237.046,-25.25L234.571,-25.25L237.146,-21.425L239.771,-21.425L242.446,-25.25L239.921,-25.25ZM258.121,-3.175L251.946,-3.175L251.946,-8.85L256.321,-8.85L256.321,-11.625L251.946,-11.625L251.946,-17.25L258.121,-17.25L258.121,-20.05L248.946,-20.05L248.946,-0.4L258.121,-0.4L258.121,-3.175Z" style="fill:rgb(0,76,152);fill-rule:nonzero;"/>
            </g>
        </g>
    </g>
</svg>
